<svg width="1380" height="1380" viewBox="0 0 1380 1380" fill="none" xmlns="http://www.w3.org/2000/svg">
<path d="M690.116 550.13C707.554 623.636 755.024 670.016 830.346 693.024C831.73 693.452 832.941 694.312 833.801 695.478C834.66 696.644 835.124 698.055 835.124 699.503C835.124 700.952 834.66 702.362 833.801 703.528C832.941 704.694 831.73 705.554 830.346 705.982C796.458 714.024 765.437 731.237 740.681 755.737C715.924 780.237 698.389 811.078 689.995 844.881C689.601 846.313 688.749 847.577 687.567 848.477C686.386 849.378 684.941 849.866 683.455 849.866C681.969 849.866 680.525 849.378 679.344 848.477C678.163 847.577 677.31 846.313 676.917 844.881C668.438 811.858 651.394 781.656 627.508 757.327C603.131 732.481 572.511 714.661 538.866 705.739C537.482 705.311 536.271 704.452 535.411 703.286C534.551 702.12 534.088 700.71 534.088 699.261C534.088 697.812 534.551 696.402 535.411 695.236C536.271 694.07 537.482 693.211 538.866 692.783C613.34 670.985 659.114 623.636 677.158 550.13C677.586 548.746 678.446 547.536 679.612 546.676C680.777 545.816 682.188 545.352 683.637 545.352C685.085 545.352 686.496 545.816 687.662 546.676C688.828 547.536 689.688 548.746 690.116 550.13Z" fill="#61D7EF"/>
<path d="M1103.18 827.685C1103.18 970.192 1047.95 1107.15 949.086 1209.79C850.221 1312.43 715.421 1372.75 573.014 1378.07C570.377 1378.19 567.744 1377.77 565.274 1376.84C562.803 1375.91 560.545 1374.5 558.635 1372.68C556.724 1370.86 555.2 1368.67 554.154 1366.25C553.108 1363.82 552.563 1361.21 552.549 1358.58V1103.06C616.083 1103.05 677.66 1081.08 726.851 1040.87C776.042 1000.66 809.823 944.683 822.474 882.421C825.332 867.184 833.39 853.41 845.271 843.45C857.152 833.49 872.121 827.961 887.624 827.806L1103.18 827.685Z" fill="#61D7EF"/>
<path d="M552.187 887.385V1103.06C409.68 1103.07 272.718 1047.83 170.082 948.968C67.4458 850.103 7.12738 715.304 1.80058 572.896C1.68652 570.26 2.10488 567.627 3.03196 565.156C3.95904 562.685 5.37589 560.427 7.19615 558.517C9.01642 556.606 11.2021 555.082 13.625 554.036C16.048 552.99 18.6581 552.444 21.2971 552.431H276.812C276.913 615.962 298.988 677.501 339.291 726.611C379.595 775.722 435.645 809.378 497.936 821.872C513.157 824.839 526.88 832.988 536.771 844.932C546.661 856.876 552.11 871.878 552.187 887.385Z" fill="#61D7EF"/>
<path d="M492.849 552.311H277.176C277.171 409.783 332.42 272.804 431.31 170.165C530.201 67.5256 665.031 7.21979 807.46 1.92358C810.092 1.82644 812.717 2.25722 815.181 3.19043C817.644 4.12365 819.896 5.54064 821.803 7.35758C823.71 9.17453 825.235 11.355 826.287 13.7702C827.338 16.1854 827.895 18.7868 827.926 21.4208V276.936C764.369 276.931 702.767 298.911 653.569 339.148C604.371 379.385 570.605 435.401 558 497.696C555.162 512.944 547.112 526.731 535.226 536.695C523.34 546.658 508.358 552.179 492.849 552.311Z" fill="#61D7EF"/>
<path d="M827.808 492.731V276.936C970.324 276.9 1107.3 332.123 1209.95 430.994C1312.59 529.865 1372.9 664.682 1378.19 807.1C1378.32 809.731 1377.92 812.36 1377.01 814.831C1376.1 817.301 1374.69 819.56 1372.88 821.473C1371.07 823.386 1368.89 824.912 1366.47 825.959C1364.06 827.006 1361.45 827.552 1358.82 827.565H1103.18C1103.18 764.023 1081.2 702.438 1040.96 653.26C1000.72 604.082 944.707 570.34 882.423 557.761C867.205 554.906 853.446 546.866 843.489 535.01C833.531 523.154 827.99 508.213 827.808 492.731Z" fill="#61D7EF"/>
</svg>
